<mxfile host="app.diagrams.net" modified="2023-05-29T14:32:30.324Z" agent="Mozilla/5.0 (Windows NT 10.0; Win64; x64) AppleWebKit/537.36 (KHTML, like Gecko) Chrome/113.0.0.0 Safari/537.36" etag="0dutLavA9LaPXqaz4FeH" version="21.3.5" type="github">
  <diagram name="Page-1" id="Mg19pzPVZFwwo0_jK6pv">
    <mxGraphModel dx="1877" dy="1718" grid="1" gridSize="10" guides="1" tooltips="1" connect="1" arrows="1" fold="1" page="1" pageScale="1" pageWidth="827" pageHeight="1169" math="0" shadow="0">
      <root>
        <mxCell id="0" />
        <mxCell id="1" parent="0" />
        <mxCell id="0IwAO2JEQvaF7iocuHzg-25" style="edgeStyle=orthogonalEdgeStyle;rounded=0;orthogonalLoop=1;jettySize=auto;html=1;entryX=0.919;entryY=0.744;entryDx=0;entryDy=0;entryPerimeter=0;" edge="1" parent="1" source="0IwAO2JEQvaF7iocuHzg-28" target="0IwAO2JEQvaF7iocuHzg-21">
          <mxGeometry relative="1" as="geometry" />
        </mxCell>
        <mxCell id="2" value="Server IP 8.8.8.8" style="whiteSpace=wrap;strokeWidth=2;verticalAlign=top;" parent="1" vertex="1">
          <mxGeometry x="-30" width="250" height="370" as="geometry" />
        </mxCell>
        <mxCell id="0IwAO2JEQvaF7iocuHzg-7" style="edgeStyle=orthogonalEdgeStyle;rounded=0;orthogonalLoop=1;jettySize=auto;html=1;exitX=0.5;exitY=1;exitDx=0;exitDy=0;entryX=0.5;entryY=0;entryDx=0;entryDy=0;entryPerimeter=0;" edge="1" parent="2" source="3" target="0IwAO2JEQvaF7iocuHzg-6">
          <mxGeometry relative="1" as="geometry" />
        </mxCell>
        <mxCell id="3" value="Application Server" style="ellipse;aspect=fixed;strokeWidth=2;whiteSpace=wrap;" parent="2" vertex="1">
          <mxGeometry x="10.004623208506702" y="135.0508658008658" width="99.90291262135922" height="99.90291262135922" as="geometry" />
        </mxCell>
        <mxCell id="0IwAO2JEQvaF7iocuHzg-20" style="edgeStyle=orthogonalEdgeStyle;rounded=0;orthogonalLoop=1;jettySize=auto;html=1;" edge="1" parent="2" source="4" target="0IwAO2JEQvaF7iocuHzg-19">
          <mxGeometry relative="1" as="geometry" />
        </mxCell>
        <mxCell id="4" value="Code base" style="whiteSpace=wrap;strokeWidth=2;" parent="2" vertex="1">
          <mxGeometry x="52.18446601941747" y="52.857142857142854" width="165.04854368932038" height="52.857142857142854" as="geometry" />
        </mxCell>
        <mxCell id="5" value="" style="curved=1;startArrow=none;endArrow=block;exitX=0.4994944965138155;exitY=1.0121212583599668;entryX=0.49929848495794804;entryY=0.004081648223254145;" parent="2" source="4" target="3" edge="1">
          <mxGeometry relative="1" as="geometry">
            <Array as="points" />
          </mxGeometry>
        </mxCell>
        <mxCell id="0IwAO2JEQvaF7iocuHzg-6" value="" style="shape=cylinder3;whiteSpace=wrap;html=1;boundedLbl=1;backgroundOutline=1;size=15;" vertex="1" parent="2">
          <mxGeometry x="99" y="260" width="71.42857142857143" height="80" as="geometry" />
        </mxCell>
        <mxCell id="0IwAO2JEQvaF7iocuHzg-8" value="my SQL database" style="text;html=1;strokeColor=none;fillColor=none;align=center;verticalAlign=middle;whiteSpace=wrap;rounded=0;" vertex="1" parent="2">
          <mxGeometry x="99" y="290" width="71.42857142857143" height="30" as="geometry" />
        </mxCell>
        <mxCell id="0IwAO2JEQvaF7iocuHzg-19" value="Web Server" style="ellipse;aspect=fixed;strokeWidth=2;whiteSpace=wrap;" vertex="1" parent="2">
          <mxGeometry x="131.06414701803052" y="135.0508658008658" width="99.90291262135922" height="99.90291262135922" as="geometry" />
        </mxCell>
        <mxCell id="0IwAO2JEQvaF7iocuHzg-9" value="&#xa;&lt;span style=&quot;color: rgb(55, 65, 81); font-family: Söhne, ui-sans-serif, system-ui, -apple-system, &amp;quot;Segoe UI&amp;quot;, Roboto, Ubuntu, Cantarell, &amp;quot;Noto Sans&amp;quot;, sans-serif, &amp;quot;Helvetica Neue&amp;quot;, Arial, &amp;quot;Apple Color Emoji&amp;quot;, &amp;quot;Segoe UI Emoji&amp;quot;, &amp;quot;Segoe UI Symbol&amp;quot;, &amp;quot;Noto Color Emoji&amp;quot;; font-size: 16px; font-style: normal; font-variant-ligatures: normal; font-variant-caps: normal; font-weight: 400; letter-spacing: normal; orphans: 2; text-align: left; text-indent: 0px; text-transform: none; widows: 2; word-spacing: 0px; -webkit-text-stroke-width: 0px; background-color: rgb(247, 247, 248); text-decoration-thickness: initial; text-decoration-style: initial; text-decoration-color: initial; float: none; display: inline !important;&quot;&gt;A server is a computer or system that provides services or resources to other computers (clients) over a network. In this case, it refers to the machine hosting the website.&lt;/span&gt;&#xa;&#xa;" style="text;html=1;strokeColor=none;fillColor=none;align=center;verticalAlign=middle;whiteSpace=wrap;rounded=0;" vertex="1" parent="1">
          <mxGeometry x="230" y="130" width="280" height="110" as="geometry" />
        </mxCell>
        <mxCell id="0IwAO2JEQvaF7iocuHzg-10" value="&#xa;&lt;span style=&quot;color: rgb(55, 65, 81); font-family: Söhne, ui-sans-serif, system-ui, -apple-system, &amp;quot;Segoe UI&amp;quot;, Roboto, Ubuntu, Cantarell, &amp;quot;Noto Sans&amp;quot;, sans-serif, &amp;quot;Helvetica Neue&amp;quot;, Arial, &amp;quot;Apple Color Emoji&amp;quot;, &amp;quot;Segoe UI Emoji&amp;quot;, &amp;quot;Segoe UI Symbol&amp;quot;, &amp;quot;Noto Color Emoji&amp;quot;; font-size: 16px; font-style: normal; font-variant-ligatures: normal; font-variant-caps: normal; font-weight: 400; letter-spacing: normal; orphans: 2; text-align: left; text-indent: 0px; text-transform: none; widows: 2; word-spacing: 0px; -webkit-text-stroke-width: 0px; background-color: rgb(247, 247, 248); text-decoration-thickness: initial; text-decoration-style: initial; text-decoration-color: initial; float: none; display: inline !important;&quot;&gt;A domain name is a human-readable address that represents the IP address of a server or a group of servers. It serves as a memorable and convenient way for users to access websites and other online resources.&lt;/span&gt;&#xa;&#xa;" style="text;html=1;strokeColor=none;fillColor=none;align=center;verticalAlign=middle;whiteSpace=wrap;rounded=0;" vertex="1" parent="1">
          <mxGeometry x="230" width="300" height="120" as="geometry" />
        </mxCell>
        <mxCell id="0IwAO2JEQvaF7iocuHzg-11" value="&#xa;&lt;span style=&quot;color: rgb(55, 65, 81); font-family: Söhne, ui-sans-serif, system-ui, -apple-system, &amp;quot;Segoe UI&amp;quot;, Roboto, Ubuntu, Cantarell, &amp;quot;Noto Sans&amp;quot;, sans-serif, &amp;quot;Helvetica Neue&amp;quot;, Arial, &amp;quot;Apple Color Emoji&amp;quot;, &amp;quot;Segoe UI Emoji&amp;quot;, &amp;quot;Segoe UI Symbol&amp;quot;, &amp;quot;Noto Color Emoji&amp;quot;; font-size: 16px; font-style: normal; font-variant-ligatures: normal; font-variant-caps: normal; font-weight: 400; letter-spacing: normal; orphans: 2; text-align: left; text-indent: 0px; text-transform: none; widows: 2; word-spacing: 0px; -webkit-text-stroke-width: 0px; background-color: rgb(247, 247, 248); text-decoration-thickness: initial; text-decoration-style: initial; text-decoration-color: initial; float: none; display: inline !important;&quot;&gt;The &quot;www&quot; in &lt;/span&gt;&lt;a style=&quot;border: 0px solid rgb(217, 217, 227); box-sizing: border-box; --tw-border-spacing-x: 0; --tw-border-spacing-y: 0; --tw-translate-x: 0; --tw-translate-y: 0; --tw-rotate: 0; --tw-skew-x: 0; --tw-skew-y: 0; --tw-scale-x: 1; --tw-scale-y: 1; --tw-pan-x: ; --tw-pan-y: ; --tw-pinch-zoom: ; --tw-scroll-snap-strictness: proximity; --tw-gradient-from-position: ; --tw-gradient-via-position: ; --tw-gradient-to-position: ; --tw-ordinal: ; --tw-slashed-zero: ; --tw-numeric-figure: ; --tw-numeric-spacing: ; --tw-numeric-fraction: ; --tw-ring-inset: ; --tw-ring-offset-width: 0px; --tw-ring-offset-color: #fff; --tw-ring-color: rgba(69,89,164,.5); --tw-ring-offset-shadow: 0 0 transparent; --tw-ring-shadow: 0 0 transparent; --tw-shadow: 0 0 transparent; --tw-shadow-colored: 0 0 transparent; --tw-blur: ; --tw-brightness: ; --tw-contrast: ; --tw-grayscale: ; --tw-hue-rotate: ; --tw-invert: ; --tw-saturate: ; --tw-sepia: ; --tw-drop-shadow: ; --tw-backdrop-blur: ; --tw-backdrop-brightness: ; --tw-backdrop-contrast: ; --tw-backdrop-grayscale: ; --tw-backdrop-hue-rotate: ; --tw-backdrop-invert: ; --tw-backdrop-opacity: ; --tw-backdrop-saturate: ; --tw-backdrop-sepia: ; color: var(--tw-prose-links); text-decoration: underline; font-weight: 500; text-underline-offset: 2px; font-family: Söhne, ui-sans-serif, system-ui, -apple-system, &amp;quot;Segoe UI&amp;quot;, Roboto, Ubuntu, Cantarell, &amp;quot;Noto Sans&amp;quot;, sans-serif, &amp;quot;Helvetica Neue&amp;quot;, Arial, &amp;quot;Apple Color Emoji&amp;quot;, &amp;quot;Segoe UI Emoji&amp;quot;, &amp;quot;Segoe UI Symbol&amp;quot;, &amp;quot;Noto Color Emoji&amp;quot;; font-size: 16px; font-style: normal; font-variant-ligatures: normal; font-variant-caps: normal; letter-spacing: normal; orphans: 2; text-align: left; text-indent: 0px; text-transform: none; widows: 2; word-spacing: 0px; -webkit-text-stroke-width: 0px; background-color: rgb(247, 247, 248);&quot; target=&quot;_new&quot; href=&quot;http://www.foobar.com/&quot;&gt;www.foobar.com&lt;/a&gt;&lt;span style=&quot;color: rgb(55, 65, 81); font-family: Söhne, ui-sans-serif, system-ui, -apple-system, &amp;quot;Segoe UI&amp;quot;, Roboto, Ubuntu, Cantarell, &amp;quot;Noto Sans&amp;quot;, sans-serif, &amp;quot;Helvetica Neue&amp;quot;, Arial, &amp;quot;Apple Color Emoji&amp;quot;, &amp;quot;Segoe UI Emoji&amp;quot;, &amp;quot;Segoe UI Symbol&amp;quot;, &amp;quot;Noto Color Emoji&amp;quot;; font-size: 16px; font-style: normal; font-variant-ligatures: normal; font-variant-caps: normal; font-weight: 400; letter-spacing: normal; orphans: 2; text-align: left; text-indent: 0px; text-transform: none; widows: 2; word-spacing: 0px; -webkit-text-stroke-width: 0px; background-color: rgb(247, 247, 248); text-decoration-thickness: initial; text-decoration-style: initial; text-decoration-color: initial; float: none; display: inline !important;&quot;&gt; is a subdomain, and the corresponding DNS record is a CNAME record. It allows the subdomain to be an alias for the main domain (foobar.com), directing traffic to the same server.&lt;/span&gt;&#xa;&#xa;" style="text;html=1;strokeColor=none;fillColor=none;align=center;verticalAlign=middle;whiteSpace=wrap;rounded=0;" vertex="1" parent="1">
          <mxGeometry x="-340" y="5" width="300" height="125" as="geometry" />
        </mxCell>
        <mxCell id="0IwAO2JEQvaF7iocuHzg-23" style="edgeStyle=orthogonalEdgeStyle;rounded=0;orthogonalLoop=1;jettySize=auto;html=1;" edge="1" parent="1" source="0IwAO2JEQvaF7iocuHzg-26">
          <mxGeometry relative="1" as="geometry">
            <mxPoint x="20" y="10" as="targetPoint" />
            <Array as="points">
              <mxPoint x="30" y="-20" />
              <mxPoint x="30" y="-20" />
            </Array>
          </mxGeometry>
        </mxCell>
        <mxCell id="0IwAO2JEQvaF7iocuHzg-21" value="" style="sketch=0;aspect=fixed;pointerEvents=1;shadow=0;dashed=0;html=1;strokeColor=none;labelPosition=center;verticalLabelPosition=bottom;verticalAlign=top;align=center;fillColor=#00188D;shape=mxgraph.azure.laptop" vertex="1" parent="1">
          <mxGeometry x="40" y="-140" width="83.33" height="50" as="geometry" />
        </mxCell>
        <mxCell id="0IwAO2JEQvaF7iocuHzg-27" value="" style="edgeStyle=orthogonalEdgeStyle;rounded=0;orthogonalLoop=1;jettySize=auto;html=1;entryX=0.919;entryY=0.744;entryDx=0;entryDy=0;entryPerimeter=0;" edge="1" parent="1" source="2" target="0IwAO2JEQvaF7iocuHzg-28">
          <mxGeometry relative="1" as="geometry">
            <mxPoint x="95" as="sourcePoint" />
            <mxPoint x="117" y="-93" as="targetPoint" />
          </mxGeometry>
        </mxCell>
        <mxCell id="0IwAO2JEQvaF7iocuHzg-28" value="response&lt;br&gt;" style="text;html=1;strokeColor=none;fillColor=none;align=center;verticalAlign=middle;whiteSpace=wrap;rounded=0;" vertex="1" parent="1">
          <mxGeometry x="120" y="-60" width="60" height="30" as="geometry" />
        </mxCell>
        <mxCell id="0IwAO2JEQvaF7iocuHzg-30" value="" style="edgeStyle=orthogonalEdgeStyle;rounded=0;orthogonalLoop=1;jettySize=auto;html=1;entryX=0.164;entryY=-0.002;entryDx=0;entryDy=0;entryPerimeter=0;" edge="1" parent="1" source="0IwAO2JEQvaF7iocuHzg-21" target="0IwAO2JEQvaF7iocuHzg-26">
          <mxGeometry relative="1" as="geometry">
            <mxPoint x="82" y="-80" as="sourcePoint" />
            <mxPoint x="11" y="-1" as="targetPoint" />
          </mxGeometry>
        </mxCell>
        <mxCell id="0IwAO2JEQvaF7iocuHzg-26" value="Request" style="text;html=1;strokeColor=none;fillColor=none;align=center;verticalAlign=middle;whiteSpace=wrap;rounded=0;" vertex="1" parent="1">
          <mxGeometry x="10" y="-50" width="60" height="30" as="geometry" />
        </mxCell>
      </root>
    </mxGraphModel>
  </diagram>
</mxfile>
